<svg xmlns="http://www.w3.org/2000/svg" viewBox="0 0 1230.6667 1081.3333"><path d="M258.6667 1078.5744c-43.5234-2.3006-78.1267-9.3105-111.3177-22.5506-57.2818-22.85-110.2465-79.8616-129.2372-139.112C7.6208 884.1802 2.7383 854.738 2.7041 824c-.056-50.0293 15.1766-113.6348 39.523-165.0367 3.1767-6.7071 4.3097-10.6185 3.669-12.6667-.5098-1.6298-4.4393-6.7292-8.7323-11.332-8.9196-9.5633-18.069-27.0648-22.4612-42.9646-5.381-19.4795-7.015-33.993-6.9312-61.565.1856-61.0423 14.2472-121.7067 39.3545-169.7832 10.804-20.688 18.9496-32.0575 33.5353-46.8077 15.33-15.503 26.8447-22.6462 43.941-27.2593 14.1598-3.8207 36.8608-3.1637 49.9155 1.4445 17.006 6.003 31.7638 19.272 41.269 37.1057 2.2236 4.172 5.6117 9.3733 7.5292 11.5585 1.9174 2.1853 6.0057 8.6148 9.0852 14.2878 5.3353 9.829 7.599 12.4036 7.599 8.6429 0-2.1604 7.656-61.463 8.6873-67.2908l.7668-4.3334H316.0495l15.642-14.4445c67.4231-62.262 154.9347-121.563 247.9073-167.9908C654.117 68.3523 701.1432 49.7346 772 29.3929c57.9484-16.636 100.9793-24.3265 146.6666-26.2125 22.495-.9286 57.762 1.0949 74.4638 4.2725 38.7706 7.3764 80.2136 24.988 104.2029 44.2824 24.3911 19.6174 48.2981 49.0493 59.3817 73.1049 20.3317 44.1274 24.6706 91.5128 14.1768 154.8264l-1.1602 7h35.4757l11.3694 19c9.8497 16.4602 11.2823 19.6238 10.7175 23.6667-2.9184 20.8877-13.163 87.3218-17.9909 116.6666-.7239 4.4-3.1286 20.3-5.3438 35.3334-2.2153 15.0333-6.2018 41.1333-8.8591 58-6.5577 41.6248-5.861 37.0866-13.6129 88.6666-3.8023 25.3-7.4796 47.35-8.1718 49l-1.2586 3h-38.5475c-34.821 0-38.8018-.2256-41.1779-2.3333-1.4468-1.2834-6.2805-8.6808-10.7417-16.4388l-8.1112-14.1054-3.9475-28.3693c-2.1711-15.6032-4.562-28.9839-5.3131-29.735-1.4706-1.4706-1.6682-.588-4.2488 18.9818-.822 6.2333-2.0213 14.3333-2.6652 18-.6438 3.6667-2.7755 16.8667-4.737 29.3333-1.9615 12.4667-4.2416 23.1075-5.0668 23.6463-.8252.5388-13.5471.9888-28.2709 1l-26.7704.0204-5.8962 7.151c-45.5238 55.2117-111.3897 119.1295-169.2315 164.2261-61.8356 48.2105-124.761 89.5599-188.681 123.9857-45.9424 24.7435-73.1405 37.36-117.9838 54.7299-58.0988 22.5042-117.8395 38.6742-166.6667 45.1116-15.7423 2.0755-54.5117 4.954-61.8736 4.5939-2.2695-.111-12.8264-.6617-23.4597-1.2237zM316 967.9876c6.2334-.729 16.5202-1.9231 22.8597-2.6536 51.6193-5.9485 128.3355-29.3712 198.012-60.4563 40.785-18.1955 67.0875-32.1094 117.1283-61.9602 16.423-9.7967 73.4764-47.7775 95.369-63.4877 22.6918-16.2836 32.3755-23.5413 41.8617-31.374 5.8102-4.7974 12.206-9.9226 14.213-11.3892 2.007-1.4667 9.8531-7.7293 17.436-13.917 29.6412-24.1875 42.4537-35.0872 42.4537-36.1159 0-.5901-4.65-1.498-10.3333-2.0173-23.508-2.1485-45.2422-15.3264-55.9935-33.9498-3.1622-5.4777-22.0605-26.6442-24.8553-27.8385-.677-.2893-.9159 11.5079-.559 27.6106.5187 23.4022.3074 28.2369-1.2603 28.8385-1.0358.3975-19.1196.7227-40.1862.7227-28.6634 0-38.817-.4194-40.3463-1.6667-1.1239-.9166-5.5254-7.6666-9.7812-15-6.759-11.6468-8.0899-15.1472-10.5222-27.6741-1.5372-7.917-3.386-14.1403-4.1273-13.8932-.7385.2462-1.756 3.0995-2.261 6.3408-4.8233 30.9558-8.023 49.8832-8.5867 50.7954-.3731.6038-19.393 1.1071-42.2664 1.1185l-41.588.0207-4.905-5.6874c-3.6219-4.1995-5.0939-5.1641-5.627-3.6873-.3973 1.1-1.3272 3.6554-2.0666 5.6786l-1.3445 3.6786-69.6156-.3453-69.6156-.3452-9.4432-14.9828c-5.1938-8.2405-10.3296-15.869-11.4129-16.9523-1.7373-1.7373-3.0706-1.0322-11.303 5.9767-10.2556 8.7317-25.2969 17.162-36.6666 20.5508-16.603 4.9487-31.242 6.0583-80.0306 6.0664l-47.364.008-10.3027-16.6454c-8.3745-13.5302-10.3027-17.6476-10.3027-22 0-2.945-.2982-5.3546-.6626-5.3546-.3644 0-7.7144 7.115-16.3333 15.811-13.5688 13.6901-17.191 16.5573-27.004 21.3753-15.6967 7.7067-23.2819 9.5166-43.6392 10.413l-17.639.7768-5.3527 13.6902c-6.5877 16.8492-15.2917 49.1765-17.5729 65.267-2.55 17.987-2.2276 50.9536.63 64.4088 7.835 36.8927 27.4768 70.002 55.522 93.5912 31.7196 26.68 71.5985 42.4387 118.0517 46.6499 16.3573 1.4828 54.6703 1.4854 67.3333.01zM110.2683 645.9918c30.4084-7.898 43.2163-17.1828 61.6042-44.6586 8.9363-13.3528 22.7942-38.8129 22.7942-41.878 0-.5787.893-2.943 1.9844-5.2538 3.251-6.883 11.349-31.8303 11.349-34.9625 0-1.597.9417-5.5291 2.0927-8.738 1.151-3.2089 2.7066-9.1343 3.4567-13.1676.7502-4.0334 1.8556-9.7334 2.4566-12.6667 2.2942-11.1985 4.0757-20.3065 5.607-28.6667 2.0088-10.9677 2.0602-70.3538.073-84-3.8076-26.141-13.7183-46.964-29.2635-61.4846-11.9687-11.1798-22.0678-14.5154-43.9476-14.5154-19.1523 0-33.3776 3.0877-43.1412 9.364-11.6713 7.5026-37.9377 36.7822-44.229 49.3027-.9212 1.8333-2.6763 4.8333-3.9002 6.6667-4.1566 6.2263-7.4423 12.6519-9.2042 18-.9663 2.9333-2.7644 7.1333-3.9957 9.3333-2.7305 4.8788-10.9882 29.9403-14.023 42.5592-1.2205 5.0743-2.826 10.7743-3.5679 12.6667-1.431 3.6503-3.315 14.7525-5.1089 30.1074-.5997 5.1334-1.8414 14.1334-2.7594 20-2.0353 13.0073-2.148 53.1673-.1926 68.6667 1.7307 13.7186 5.9837 30.7492 9.4895 38 1.4183 2.9333 3.923 8.2564 5.566 11.829 5.1498 11.1986 16.8488 22.294 30.9143 29.3197 12.1255 6.0567 12.5738 6.1662 25.2793 6.1753 7.2416.005 16.3382-.8746 20.6667-1.9988zM94.0927 571.523c-4.1669-4.4182-6.7003-11.3118-10.1148-27.5232-3.8585-18.3196 1.9122-80.3899 9.979-107.3333 5.4386-18.166 9.1228-29.4108 10.0473-30.6667.54-.7333 1.7551-3.7333 2.7006-6.6666 3.6444-11.3076 16.1531-28.5215 23.1318-31.8331 10.0722-4.7796 20.0476-.8062 24.5302 9.7708 4.5976 10.8484 6.0354 41.055 3.1128 65.3956-.8365 6.9667-2.0505 17.1667-2.6977 22.6667-1.2298 10.4503-3.2556 23.1445-5.3196 33.3333-.6685 3.3-1.8395 9.3-2.602 13.3333-2.1124 11.171-5.2574 22.2214-8.101 28.4636-1.4104 3.0959-2.993 7.3367-3.5169 9.424-1.2075 4.8111-16.5275 21.153-22.4768 23.9761-7.592 3.6027-13.8018 2.8244-18.6729-2.3405zm29.5866-22.2846c11.9674-23.6047 23.0252-77.1308 25.2527-122.2386.9062-18.3495.044-19.9315-5.8155-10.6666-12.6024 19.9277-23.5248 64.759-27.2198 111.7238-1.6618 21.1235-1.047 31.2018 1.8465 30.267.8746-.2826 3.5458-4.371 5.9361-9.0856zm741.3453 95.999c18.2017-4.8775 28.8898-11.4152 43.7937-26.7877 8.5732-8.8428 17.8484-20.8735 17.8484-23.151 0-.488 1.2837-2.69 2.8526-4.8933 15.0639-21.1553 35.5403-80.6643 41.8891-121.739.4534-2.9332 1.413-8.0332 2.1326-11.3332 3.6423-16.7048 5.028-56.6005 2.6861-77.3334-2.6087-23.0945-3.3693-25.9703-11.2843-42.6666-4.2728-9.0133-7.6636-13.6864-16.5638-22.8278-16.4089-16.8536-26.162-21.1722-47.8149-21.1722-18.1623 0-33.7655 3.8646-44.564 11.0377-7.7255 5.1318-32.3158 29.2027-37.6751 36.8793-5.01 7.1762-16.1978 28.9253-18.4053 35.78-.8803 2.7333-2.0425 5.5696-2.5826 6.303-.5402.7333-2.3418 5.5333-4.0037 10.6666-1.662 5.1334-3.4784 9.9334-4.0366 10.6667-.5583.7333-1.899 4.6333-2.9792 8.6667C778.1396 443.8655 776 452.5806 776 455.3583c0 1.748-.983 6.6575-2.1843 10.9099-3.6448 12.9017-4.6956 24.855-5.368 61.065-.4377 23.5665-.1485 37.0148.9032 42 3.759 17.818 7.0518 29.1294 10.7124 36.7995 2.1652 4.5367 3.9367 8.9384 3.9367 9.7816 0 4.2233 19.0835 20.7064 30.6666 26.4879 11.9376 5.9584 34.0559 7.2037 50.3579 2.8353zm-20.197-74.565c-6.3146-5.8206-7.979-9.6711-11.5294-26.6726-1.7114-8.195-1.0022-41.801 1.1817-56 .7332-4.7666 1.9603-13.1666 2.727-18.6666 2.2091-15.849 3.7162-22.641 7.3742-33.2336 1.8804-5.445 3.4393-10.845 3.4642-12 .0249-1.1549 1.2045-4.4998 2.6214-7.4331 1.417-2.9333 2.5966-5.8771 2.6214-6.5418.025-.6646 3.1603-7.5646 6.9675-15.3333 9.8587-20.1169 21.8967-32.1249 32.205-32.1249 6.8613 0 14.5698 10.6649 17.274 23.899 2.951 14.4422 1.4469 57.9413-2.908 84.101-.6715 4.0333-1.6049 9.7333-2.0742 12.6667-5.4508 34.0678-16.7226 68.2921-25.8527 78.4954-4.4927 5.0208-17.9688 13.1456-22.901 13.8072-4.5158.6057-5.7004.0793-11.1711-4.9634zm28.0806-19.101c5.4757-8.0876 11.5122-23.836 16.338-42.6236 8.9026-34.6587 16.555-98.8534 12.1114-101.5997-3.7593-2.3234-17.5644 27.41-24.5349 52.8432-10.5 38.3113-16.6468 100.3169-9.729 98.14.8652-.2723 3.4817-3.3142 5.8145-6.7598zm-548.772 84.9514c7.625-1.9123 14.4638-3.9342 15.1972-4.4929.7333-.5587 3.7333-1.7894 6.6666-2.7348 18.7478-6.0425 35.4877-22.7285 45.4416-45.2953 1.132-2.5666 2.8778-6.4666 3.8793-8.6666 5.2042-11.432 7.3458-24.4543 7.3458-44.6667 0-20.5114-2.2206-33.703-7.5718-44.9807-2.3597-4.973-18.2776-20.3526-21.065-20.3526-4.8462 0-2.604-3.6707 8.883-14.542 6.8514-6.484 13.3304-13.5147 14.398-15.6236 1.0675-2.109 3.5329-6.2344 5.4785-9.1678 1.9457-2.9333 4.5908-8.9333 5.878-13.3333 1.2872-4.4 3.4637-11.5665 4.8365-15.9256C415.5001 390.403 416 384.628 416 367.9087c0-22.584-.649-25.8325-8.1479-40.7745-4.966-9.8953-10.023-14.9858-20.1636-20.2977-14.7741-7.739-18.7835-8.172-75.4628-8.1495-29.7019.0118-52.396.5497-53.5334 1.2689-1.296.8195-2.329 4.8212-3.0065 11.6462-.5677 5.7188-1.6343 14.5978-2.3703 19.7312-.736 5.1333-1.9367 15.3333-2.6682 22.6666-1.6242 16.2834-3.27 29.9111-5.314 44-1.6288 11.228-3.071 22.8073-5.314 42.6667-.7453 6.6-1.9475 16.2-2.6713 21.3333-1.313 9.3106-3.1613 23.6587-5.3248 41.3334-1.3591 11.1037-3.5369 26.2823-5.3565 37.3333-2.021 12.2743-5.929 39.7157-7.975 56-.7372 5.8667-1.9595 14.2667-2.7162 18.6667-.7567 4.4-1.7307 11.75-2.1644 16.3333l-.7884 8.3333h48.6248c47.969 0 48.8117-.0469 62.4886-3.477zm-32.9587-74.8563c.854-12.836 2.7481-30.586 4.8021-45 .7315-5.1333 1.7096-12.4833 2.1737-16.3333l.8436-7h7.0814c9.1573 0 12.6077 1.4005 19.8131 8.0422C333.5616 508.4456 336 515.5863 336 530.9773c0 14.4132-2.5529 20.909-12.2449 31.1569-7.6108 8.0473-14.9632 11.199-26.1253 11.199h-7.2284zm18.6163-142.6667c.3908-7.15 1.351-16.6 2.134-21 .783-4.4 2.005-12.8 2.7158-18.6666.7107-5.8667 1.6747-12.6167 2.1423-15l.8501-4.3334h8.8695c16.8789 0 22.8279 6.466 22.8279 24.8116 0 15.2148-4.4135 27.3571-13.5444 37.2629-6.5187 7.072-12.3976 9.9255-20.4488 9.9255h-6.2567zM536 636.2102c0-2.0843 3.6-18.079 8-35.5436 4.4-17.4647 8-31.9593 8-32.2103 0-.251-15.6642-.4564-34.8093-.4564-32.629 0-34.7491-.1461-33.8481-2.3333.5286-1.2833 1.4964-6.5333 2.1507-11.6667.6542-5.1333 1.7422-12.6333 2.4177-16.6666 2.5245-15.0726 4.1099-24.8326 4.9272-30.3334l.842-5.6666h55.6532v-3.2466c0-1.7856.6244-4.889 1.3877-6.8964 3.4013-8.9461 14.6123-51.8704 14.6123-55.9471v-3.2433h-61.6251l.8034-5c.7741-4.8174 2.3135-15.387 4.9034-33.6666.6753-4.7667 1.6075-11.8167 2.0715-15.6667l.8437-7 30.1682-.0424c23.6677-.0333 30.6961-.4424 32.6183-1.899 1.65-1.2503 2.882-4.8287 3.7729-10.9576.7275-5.0055 1.8753-12.401 2.5505-16.4343 2.073-12.3827 3.896-25.5996 4.7359-34.3333l.8013-8.3334H456.3205L455.427 307c-.4915 4.5833-1.4258 12.5333-2.0764 17.6666a93178.7876 93178.7876 0 0 0-2.6159 20.6667c-.7882 6.2333-2.0187 15.5333-2.7346 20.6666-.7158 5.1334-1.9103 14.1334-2.6545 20-1.259 9.9255-2.2707 17.2775-5.4125 39.3334-.679 4.7666-1.8376 13.4666-2.5747 19.3333-.7371 5.8667-1.9407 14.2667-2.6745 18.6667-.734 4.4-1.98 12.5-2.7693 18-2.4509 17.0798-3.6723 25.614-5.2478 36.6666A32564.2267 32564.2267 0 0 1 424 536.6666c-4.3357 30.2622-4.2416 29.6538-8.041 52-1.5963 9.3884-3.2388 23.761-4.7616 41.6667l-.8222 9.6666H536zm93.332 2.4855c1.3172-.8327 2.3034-4.5759 2.8929-10.9796.911-9.8975 2.7363-23.351 5.117-37.7162 1.2724-7.677 2.119-13.3766 5.2488-35.3333.784-5.5 2.0223-13.6 2.7517-18 .7295-4.4 1.659-11 2.0658-14.6667 1.18-10.638 1.7952-12.5032 4.623-14.0167 3.5782-1.915 11.0633 1.6343 15.1933 7.2044 6.57 8.8607 6.3611 7.2303 10.0995 78.8123.7277 13.9333 1.6749 29.9833 2.1049 35.6667l.7818 10.3333h63.9924l-.8005-11c-.4402-6.05-1.3215-27.2-1.9583-47-1.2898-40.1003-3.2006-54.8064-9.0185-69.4085-3.8476-9.6569-15.9145-21.9248-21.5656-21.9248-3.9412 0-.6786-3.9543 6.4706-7.8422 2.1822-1.1868 8.8223-5.7003 14.7556-10.03 8.6803-6.3342 12.2807-10.1113 18.429-19.3333 6.9779-10.4662 12.1513-19.8622 12.1513-22.0692 0-.4794 1.1384-3.3887 2.5298-6.4651 2.4597-5.4385 3.6435-9.4492 6.6743-22.6127.8044-3.4938 1.4626-15.4918 1.4626-26.662 0-18.3914-.3335-21.3177-3.5309-30.981-7.6371-23.0814-22.4077-36.1757-48.778-43.242-9.5345-2.555-13.954-2.7625-58.8445-2.7625h-48.5357l-.8686 3.6667c-.4777 2.0166-1.4898 8.1666-2.249 13.6666-.7593 5.5-1.9312 13.9-2.6043 18.6667-.6731 4.7667-1.827 13.4667-2.5641 19.3333-.7371 5.8667-1.9483 14.2667-2.6916 18.6667-.7432 4.4-1.9804 13.1-2.7492 19.3333-2.4987 20.2587-3.9074 31.1714-5.1637 40-3.2513 22.8481-4.2018 29.2577-5.4375 36.6667-.7339 4.4-1.9262 12.8-2.6496 18.6667-.7234 5.8666-1.9234 14.2666-2.6667 18.6666-.7432 4.4-1.9432 12.8-2.6666 18.6667-.7234 5.8666-1.9234 14.2666-2.6667 18.6666-.7432 4.4-1.928 12.8-2.6329 18.6667-.7048 5.8667-1.9123 13.6667-2.6833 17.3333C572.5795 583 571.318 590.5 570.5475 596c-.7707 5.5-1.963 13.9-2.6496 18.6667-.6866 4.7666-1.6144 12.4166-2.0618 17l-.8134 8.3333 31.1554-.0204c17.286-.0113 32.045-.5828 33.1539-1.2838zm29.8301-198.3624c1.2626-11.8635 3.293-25.6622 4.8559-33 1.6182-7.5978 3.6488-23.4893 4.813-37.6667l.7938-9.6667h6.9501c10.1722 0 18.8095 3.3718 23.1293 9.0291 3.399 4.4515 3.6574 5.7523 4.0739 20.5159.3479 12.332-.0615 17.2893-1.881 22.7757-4.5907 13.8429-12.8475 25.8723-21.624 31.504-5.371 3.4467-7.852 4.1753-14.2167 4.1753h-7.7102zm362.6004 194c.3837-3.1167 1.3863-10.4667 2.2279-16.3334 3.2887-22.9255 3.8696-27.0023 5.2237-36.6667.7707-5.5 2.0282-13 2.7946-16.6666.7663-3.6667 1.9401-10.5667 2.6083-15.3333 1.5642-11.1574 3.9265-27.834 5.3831-38 .6304-4.4 1.7767-12.5 2.5474-18 .7706-5.5 2.0243-13 2.7859-16.6667.7616-3.6667 1.9768-10.8667 2.7004-16 .7236-5.1333 1.873-12.6333 2.5541-16.6667.6812-4.0333 1.6556-10.1833 2.1654-13.6666.5098-3.4834 1.391-6.3334 1.9581-6.3334.5672 0 1.3662 5.55 1.7757 12.3334.4094 6.7833 1.3644 16.5333 2.1222 21.6666 1.364 9.2404 2.6004 18.7125 5.3082 40.6667.7688 6.2333 2.0183 14.9333 2.7766 19.3333.7582 4.4 1.9893 14.3 2.7357 22 2.1456 22.1363 3.5486 34.519 5.212 46 2.5408 17.5373 3.7637 26.1301 5.2182 36.6667.7593 5.5 1.7713 11.65 2.249 13.6666l.8686 3.6667H1146.3275l.9202-7c1.7433-13.261 3.1784-23.025 4.7524-32.3333 1.783-10.5448 3.3651-21.743 5.2746-37.3334.7185-5.8666 1.9373-13.6666 2.7083-17.3333.771-3.6667 1.9787-10.8667 2.6837-16 .7051-5.1333 1.9051-12.3333 2.6667-16 .7616-3.6667 2.0153-11.1666 2.786-16.6666 1.3497-9.6327 2.0086-14.2582 5.1285-36 2.6988-18.808 3.6826-24.392 8.2216-46.6667 1.5134-7.4266 3.4505-19.0814 5.2079-31.3333.7363-5.1334 1.9315-12.9334 2.656-17.3334.7245-4.4 1.963-12.5 2.7522-18 .7892-5.5 2.0105-13.9 2.7139-18.6666.7034-4.7667 1.6229-13.6167 2.0432-19.6667l.7644-11-27.8035.0424c-21.6466.033-28.3461.4535-30.2536 1.899-1.65 1.2503-2.8821 4.8287-3.7729 10.9576-.7276 5.0055-1.8791 12.401-2.5589 16.4343-.6799 4.0334-1.828 12.1334-2.5515 18-.7234 5.8667-1.8715 13.9667-2.5514 18-4.6453 27.559-5.3163 32.0303-8.1031 54-1.3338 10.5149-2.9689 22.344-5.4369 39.3333-.6925 4.7667-1.6251 12.4167-2.0725 17-.4473 4.5834-1.2736 8.3334-1.8361 8.3334-1.0674 0-2.0524-8.006-4.0193-32.6667-2.9583-37.0909-5.2654-58.7566-7.951-74.6666-3.9529-23.4176-3.8018-22.4382-8.1221-52.6667-.6813-4.7667-1.6113-12.1167-2.0667-16.3333l-.828-7.6667h-76.7305l-.7947 10.3333c-.4371 5.6834-1.3629 14.8334-2.0574 20.3334-.6944 5.5-1.9075 15.1-2.6957 21.3333-2.9804 23.57-4.773 35.3348-8.1264 53.3333-.7514 4.0333-1.9433 13.0333-2.6486 20-.7053 6.9667-1.8426 16.5667-2.5274 21.3333-.6848 4.7667-1.8907 13.1667-2.68 18.6667-.7892 5.5-2.0277 13.6-2.7522 18-.7244 4.4-1.9244 12.2-2.6666 17.3333-.7422 5.1334-1.9422 12.9334-2.6667 17.3334-1.2404 7.5336-2.537 16.3654-5.383 36.6666-.6683 4.7667-1.8497 11.6667-2.6255 15.3334-.7757 3.6666-1.9983 11.4666-2.7169 17.3333-.7185 5.8667-1.9222 14.8667-2.6748 20-.7526 5.1333-1.7034 14.8833-2.1128 21.6667l-.7444 12.3333h55.9889zM567.4 558.02c.4933-3.289.98-9.139 1.0817-13l.185-7.02L548 537.6682c-11.3666-.1823-21.4292.1609-22.3613.7627-.932.6018-2.0688 5.101-2.5261 9.9982l-.8315 8.904h17.9604c17.4338 0 18.0522.0977 21.0919 3.3334 1.7223 1.8333 3.5901 3.3333 4.1507 3.3333.5606 0 1.4227-2.691 1.916-5.98zm190.2482-36.3534c.357-6.4167.4432-11.9058.1913-12.1981-.926-1.0747-12.5061 5.9159-12.5061 7.5496 0 2.0727 9.3304 16.3152 10.6882 16.3152.5376 0 1.2695-5.25 1.6266-11.6667zm-335.7494-38.8313c1.219-9.0739 1.8249-16.8739 1.3464-17.3333-.4785-.4595-1.8492.6646-3.046 2.498-1.1967 1.8333-5.031 6.3912-8.5208 10.1288-3.4898 3.7375-6.345 7.1808-6.345 7.6517 0 .471 2.7908 4.526 6.2019 9.0113 4.3736 5.751 6.4886 7.6224 7.1745 6.3482.5349-.9937 1.97-9.2308 3.189-18.3047zm164.2286-60.1736c1.0415-7.452 1.5535-14.0994 1.1378-14.772-.4157-.6727-10.3353-1.2231-22.0435-1.2231H543.934l-1.3003 3.4201c-.7152 1.8811-1.3003 5.4811-1.3003 8v4.5799h30.3462l5.6138 7.4353c3.0875 4.0895 5.9122 7.137 6.277 6.7721.3648-.3647 1.5154-6.7603 2.557-14.2123zM800.861 353c11.9312-23.9712 31.9984-47.1998 50.1876-58.0943 25.8911-15.5077 62.307-17.4787 84.9514-4.5982 22.9788 13.0708 40.6162 35.7493 51.3492 66.0259 2.0148 5.6833 4.1377 10.3333 4.7177 10.3333 1.2715 0 2.0671-3.752 3.9582-18.6667 4.4583-35.1617 8.3832-59.4317 9.7519-60.3024.856-.5445 14.6467-.9993 30.6462-1.0105 27.0662-.019 29.0431-.1827 28.4179-2.3537-.3695-1.2834-1.056-7.7334-1.5255-14.3334-4.1101-57.777-22.9127-99.0844-56.6859-124.5332-25.01-18.8456-54.0725-30.4385-92.543-36.915-25.9094-4.3618-94.8063-.718-130.0364 6.8775-39.4608 8.5075-95.4537 25.6507-144.717 44.3074-29.9167 11.33-88.3072 38.0825-112 51.3148-4.4 2.4573-14.8884 8.1991-23.3075 12.7595-36.7027 19.8807-109.4825 68.185-109.2833 72.5319.0418.9114 2.9927 3.8777 6.5577 6.5918 7.2732 5.5372 13.4604 13.8215 16.8394 22.547 1.2463 3.2184 3.2996 7.0517 4.5628 8.5183 1.2633 1.4667 5.1492 7.6595 8.6354 13.7618 3.4862 6.1023 6.7925 10.6023 7.3474 10 .5548-.6023 1.974-8.5951 3.1538-17.7618 3.1684-24.619 6.1108-45.5959 6.8732-49l.6719-3h145.065l2.9225 4.7288c3.3676 5.4489 5.6705 5.3892 6.6393-.172l.6776-3.8901 35.989-1.033c61.5247-1.7659 80.7584.1913 101.4164 10.3199 11.5697 5.6726 19.8476 12.8011 26.675 22.9712 2.8585 4.258 6.8928 9.756 8.9652 12.2177 4.6826 5.5624 9.572 15.8059 12.3422 25.8575 1.162 4.2167 2.5335 7.6667 3.0476 7.6667s3.9958-6.15 7.7371-13.6667z"/></svg>